/* XPM */
static char * door_on_tile_xpm[] = {
"32 32 332 2",
"  	c #337803",
". 	c #317105",
"+ 	c #357B08",
"@ 	c #466C3C",
"# 	c #A78B7E",
"$ 	c #9D7376",
"% 	c #B49187",
"& 	c #B59187",
"* 	c #B4A297",
"= 	c #B49B90",
"- 	c #B4A599",
"; 	c #B38B84",
"> 	c #80636C",
", 	c #AE827F",
"' 	c #B59288",
") 	c #B5948A",
"! 	c #B4A498",
"~ 	c #B4A69A",
"{ 	c #B4958B",
"] 	c #45683C",
"^ 	c #337507",
"/ 	c #34740C",
"( 	c #716E57",
"_ 	c #998480",
": 	c #F2BCA7",
"< 	c #FBCAAE",
"[ 	c #DCB19C",
"} 	c #FBCBAF",
"| 	c #FCCBAF",
"1 	c #A0807D",
"2 	c #FAC9AD",
"3 	c #998380",
"4 	c #34770B",
"5 	c #337504",
"6 	c #347509",
"7 	c #856E68",
"8 	c #EEC7B2",
"9 	c #FBD2B6",
"0 	c #FBCDB1",
"a 	c #FAC8AD",
"b 	c #D3998F",
"c 	c #F8C0A8",
"d 	c #9A7476",
"e 	c #F1B3A0",
"f 	c #347808",
"g 	c #576052",
"h 	c #F4C0A8",
"i 	c #FBD1B5",
"j 	c #FBC9AD",
"k 	c #EDA99A",
"l 	c #E38A8A",
"m 	c #C1727B",
"n 	c #976771",
"o 	c #A56C74",
"p 	c #A66D75",
"q 	c #7E5E6B",
"r 	c #A66D74",
"s 	c #A66C74",
"t 	c #576252",
"u 	c #406E2F",
"v 	c #D09C90",
"w 	c #FBC9AE",
"x 	c #EAA095",
"y 	c #D78385",
"z 	c #805F6B",
"A 	c #705A68",
"B 	c #966675",
"C 	c #AE717C",
"D 	c #AF717C",
"E 	c #AE707B",
"F 	c #906472",
"G 	c #6D5967",
"H 	c #617282",
"I 	c #6D5866",
"J 	c #9F6A78",
"K 	c #987375",
"L 	c #F7C1A8",
"M 	c #F3B8A3",
"N 	c #DE8A89",
"O 	c #6E5967",
"P 	c #745B69",
"Q 	c #7B5D6B",
"R 	c #7D5E6B",
"S 	c #617182",
"T 	c #6E5866",
"U 	c #705967",
"V 	c #9E7F7C",
"W 	c #EFAB9C",
"X 	c #946770",
"Y 	c #7B5D6C",
"Z 	c #A56C79",
"` 	c #B0747C",
" .	c #BE8B89",
"..	c #C08F8D",
"+.	c #B88082",
"@.	c #986774",
"#.	c #6F7D8B",
"$.	c #A56E78",
"%.	c #B58584",
"&.	c #B98D8A",
"*.	c #B98D8B",
"=.	c #B38181",
"-.	c #A16B77",
";.	c #7F626C",
">.	c #B08983",
",.	c #B18D85",
"'.	c #A87478",
").	c #755B68",
"!.	c #7B5D6A",
"~.	c #8A636F",
"{.	c #8C6772",
"].	c #947378",
"^.	c #947278",
"/.	c #7F5E6C",
"(.	c #677686",
"_.	c #89646F",
":.	c #957478",
"<.	c #8B636F",
"[.	c #9B7778",
"}.	c #FBC5AB",
"|.	c #EDA196",
"1.	c #80606C",
"2.	c #6B6978",
"3.	c #6B6776",
"4.	c #A8777D",
"5.	c #C49591",
"6.	c #C08E8D",
"7.	c #83646F",
"8.	c #6B7A88",
"9.	c #A2737A",
"0.	c #C39490",
"a.	c #9E8E89",
"b.	c #FCD7BB",
"c.	c #F0AC9C",
"d.	c #80626E",
"e.	c #788B97",
"f.	c #748592",
"g.	c #947077",
"h.	c #C49590",
"i.	c #886B73",
"j.	c #6F7E8C",
"k.	c #AC8383",
"l.	c #9F837F",
"m.	c #FCCEB1",
"n.	c #84606C",
"o.	c #AC7A7F",
"p.	c #B78B89",
"q.	c #BF8F8D",
"r.	c #C1938F",
"s.	c #BC8A8A",
"t.	c #81616D",
"u.	c #7E9099",
"v.	c #9C6B75",
"w.	c #C0918E",
"x.	c #9E8682",
"y.	c #FCD0B4",
"z.	c #6B5866",
"A.	c #6A5766",
"B.	c #6B5766",
"C.	c #6E5A67",
"D.	c #81939C",
"E.	c #8A606E",
"F.	c #A78081",
"G.	c #A88182",
"H.	c #9F737A",
"I.	c #83606C",
"J.	c #9F807C",
"K.	c #FDCBAF",
"L.	c #A96E7A",
"M.	c #768692",
"N.	c #C59591",
"O.	c #87646E",
"P.	c #936E73",
"Q.	c #E8B4A0",
"R.	c #EAB9A3",
"S.	c #DB918B",
"T.	c #986775",
"U.	c #A56D78",
"V.	c #9E6976",
"W.	c #765C6A",
"X.	c #717F8D",
"Y.	c #956672",
"Z.	c #B88B8A",
"`.	c #B88C8A",
" +	c #AE7C81",
".+	c #82606C",
"++	c #B38385",
"@+	c #7E5E6C",
"#+	c #637484",
"$+	c #9E8985",
"%+	c #FCD3B7",
"&+	c #C39390",
"*+	c #AC7B80",
"=+	c #785F6A",
"-+	c #696272",
";+	c #896A71",
">+	c #B78285",
",+	c #C39590",
"'+	c #9E8984",
")+	c #A0737A",
"!+	c #AA8283",
"~+	c #A98282",
"{+	c #A17478",
"]+	c #72737F",
"^+	c #859FA7",
"/+	c #726D79",
"(+	c #859FA8",
"_+	c #77616D",
":+	c #A67B7D",
"<+	c #9E8C87",
"[+	c #FCD5B9",
"}+	c #715A68",
"|+	c #7A5D6A",
"1+	c #755B69",
"2+	c #6F6C79",
"3+	c #829BA4",
"4+	c #6F6774",
"5+	c #8099A3",
"6+	c #7B626E",
"7+	c #BA8788",
"8+	c #B88386",
"9+	c #85616D",
"0+	c #89626F",
"a+	c #AD707B",
"b+	c #A76D79",
"c+	c #6E6B79",
"d+	c #7F6871",
"e+	c #C49490",
"f+	c #725A69",
"g+	c #86606E",
"h+	c #88616E",
"i+	c #89616E",
"j+	c #7D5D6C",
"k+	c #735F6C",
"l+	c #906C74",
"m+	c #957479",
"n+	c #967479",
"o+	c #8F6A73",
"p+	c #7B5E6B",
"q+	c #BD898A",
"r+	c #B68184",
"s+	c #715E6C",
"t+	c #84606E",
"u+	c #8A626F",
"v+	c #88616F",
"w+	c #9E827E",
"x+	c #FCCDB1",
"y+	c #C2928F",
"z+	c #BE8E8C",
"A+	c #6D6B79",
"B+	c #79616E",
"C+	c #AC6F7B",
"D+	c #815F6B",
"E+	c #80626D",
"F+	c #846870",
"G+	c #7E606C",
"H+	c #6F6B79",
"I+	c #819BA4",
"J+	c #715E6B",
"K+	c #7C5E6B",
"L+	c #7D5F6C",
"M+	c #755C6A",
"N+	c #906A73",
"O+	c #987479",
"P+	c #BB8788",
"Q+	c #BF8D8B",
"R+	c #896573",
"S+	c #737581",
"T+	c #656C7C",
"U+	c #71737F",
"V+	c #9E6E78",
"W+	c #C3928E",
"X+	c #977479",
"Y+	c #83616C",
"Z+	c #9F7F7C",
"`+	c #80636F",
" @	c #748E9A",
".@	c #6F8795",
"+@	c #8C6D74",
"@@	c #C2918E",
"#@	c #866770",
"$@	c #A87A7C",
"%@	c #9E7D7B",
"&@	c #FCCAAE",
"*@	c #EFA99B",
"=@	c #6E5A69",
"-@	c #6F5B69",
";@	c #AA777D",
">@	c #707E8C",
",@	c #A47D7F",
"'@	c #AA767D",
")@	c #6D5A68",
"!@	c #785E6A",
"~@	c #967677",
"{@	c #977878",
"]@	c #916971",
"^@	c #A56C78",
"/@	c #A46C78",
"(@	c #835F6F",
"_@	c #647484",
":@	c #AF7C81",
"<@	c #775C69",
"[@	c #9D7A7A",
"}@	c #FCC8AD",
"|@	c #EEA699",
"1@	c #8F6472",
"2@	c #667686",
"3@	c #AC8484",
"4@	c #88656E",
"5@	c #9E8F8A",
"6@	c #FCD8BC",
"7@	c #6B7A89",
"8@	c #8C616E",
"9@	c #A98182",
"0@	c #9E7E7C",
"a@	c #745B68",
"b@	c #946871",
"c@	c #E4938E",
"d@	c #E3948E",
"e@	c #DB8185",
"f@	c #825F6B",
"g@	c #627181",
"h@	c #986776",
"i@	c #AC707B",
"j@	c #AC6F7A",
"k@	c #A86E7A",
"l@	c #805E6D",
"m@	c #7D5C6A",
"n@	c #6A5866",
"o@	c #6C5866",
"p@	c #6C5766",
"q@	c #6C5967",
"      . + @ # $ $ % & * = - ; > , ' ) = ! ~ { $ $ # ] ^ . .     ",
"    / ( _ : < [ [ < < } } } | 1 2 < < } } } < [ [ < : 3 ( 4 5   ",
"  6 7 8 9 0 a b b a a a a a c d e 2 a a a a a b b a 0 9 8 7 f 5 ",
"5 g h i j k l m n o o o o o p q r s o o o o o n m l k j i h t   ",
"u v w } x y z A B C D D D E F G H I J D D D C B A z y x } w v u ",
"K L < M N O P Q R R R R R R P O S T A A A A A U O O O N M < L K ",
"V | < W X Y Z `  .........+.@.G #.I $.%.&.&.&.*.=.-.Y X W < | V ",
";.>.,.'.).!.~.{.].].].].].^./.G (.I _.].].].].].:.<.!.).'.,.>.;.",
"[.}.j |.1.2.3.4.5.5.5.5.5.5.6.7.8.9.0.5.5.5.5.5.4.3.2.1.|.j }.[.",
"a.b.< c.d.e.f.g.h.0.0.0.0.0.5.i.j.k.0.0.0.0.0.h.g.f.e.d.c.< b.a.",
"l.m.< c.n.o.p.q.r.r.r.r.r.r.s.t.u.v.w.r.r.r.r.r.q.p.o.n.c.< m.l.",
"x.y.< c.z z.A.A.A.A.A.A.A.A.B.C.D.E.F.G.G.G.G.G.G.G.H.I.c.< y.x.",
"J.K.< c.n.Z E E E E E E E E L.Y M.k.0.0.0.0.0.0.0.0.N.O.c.< K.J.",
"P.Q.R.S.z T.U.U.U.U.U.U.U.U.V.W.X.Y.Z.`.`.`.`.`.`.&. +.+S.R.Q.P.",
"P.Q.R.S..+ +&.&.&.&.&.&.&.&.++@+#+Y.Z.`.`.`.`.`.`.&. +.+S.R.Q.P.",
"$+%+< c.O.N.0.0.0.0.0.0.0.&+*+=+-+;+>+,+0.0.0.0.0.0.N.O.c.< %+$+",
"'+%+< c.I.)+!+~+~+~+~+~+!+{+]+^+/+(+_+:+G.G.G.G.G.G.H.I.c.< %+'+",
"<+[+< c.z }+|+Q Q Q Q Q Q 1+2+3+4+5+6+7+r.r.r.r.r.r.8+9+c.< [+<+",
"J.| < c.z 0+a+a+a+a+a+a+a+b+c+3+4+5+d+e+0.0.0.0.0.0.e+O.c.< | J.",
"[.}.j |.z f+g+h+h+h+h+h+i+j+2+3+4+5+k+l+m+m+m+m+m+n+o+.+|.j }.[.",
";.>.,.'.p+q+5.5.5.5.5.5.5.r+c+3+4+5+s+t+u+u+u+u+u+v+P ).'.,.>.;.",
"w+x+< W O.y+0.0.0.0.0.0.0.z+A+3+4+5+B+C+a+a+a+a+a+a+0+z W < x+w+",
"a.b.< c.D+E+F+F+F+F+F+F+F+G+H+I+4+5+J+K+G+G+G+G+G+L+M+z c.< b.a.",
"$+%+< c..+N+O+P+5.5.5.5.5.Q+R+S+T+U+V+W+5.5.5.5.P+O+X+Y+c.< %+$+",
"Z+| < c.`+ @.@+@h.0.0.0.0.0.@@#@(.$@0.0.0.0.0.h.+@.@ @`+c.< | Z+",
"%@&@< *@z =@-@;@*.&.&.&.&.&.++@+>@,@`.`.`.`.`.*.'@-@)@z *@< &@%@",
"!@~@{@]@P T.U.U.^@U.U.U.U./@(@O _@Y.Z.`.`.`.`.`.&.*.:@<@]@{@~@!@",
"[@}@&@|@n.Z E E E E E E E a+1@G 2@3@0.0.0.0.0.0.0.0.N.4@|@&@}@[@",
"5@6@< c.z z.A.A.A.A.A.A.A.A.z.O 7@8@9@~+~+~+~+~+~+!+)+I.c.< 6@5@",
"0@&@< *@9+8+r.r.r.r.r.r.r.r.s.t.H T !.Q Q Q Q Q Q Q a@z *@< &@0@",
"b@c@d@e@f@8+r.r.r.r.r.r.r.r.s.t.g@T h@i@j@j@j@j@j@k@l@m@e@d@c@b@",
"G n@n@z.O o@p@o@o@o@o@o@o@o@o@O T O G q@q@q@q@q@q@G O O z.n@n@G "};
