/* XPM */
static char * door_xpm[] = {
"32 32 319 2",
"  	c None",
". 	c #B08D85",
"+ 	c #9D7376",
"@ 	c #B49187",
"# 	c #B59187",
"$ 	c #B4A297",
"% 	c #B49B90",
"& 	c #B4A599",
"* 	c #B38B84",
"= 	c #80636C",
"- 	c #AE827F",
"; 	c #B59288",
"> 	c #B5948A",
", 	c #B4A498",
"' 	c #B4A69A",
") 	c #B4958B",
"! 	c #8A676F",
"~ 	c #9B8482",
"{ 	c #F2BCA7",
"] 	c #FBCAAE",
"^ 	c #DCB19C",
"/ 	c #FBCBAF",
"( 	c #FCCBAF",
"_ 	c #A0807D",
": 	c #FAC9AD",
"< 	c #8F6C72",
"[ 	c #EEC7B2",
"} 	c #FBD2B6",
"| 	c #FBCDB1",
"1 	c #FAC8AD",
"2 	c #D3998F",
"3 	c #F8C0A8",
"4 	c #9A7476",
"5 	c #F1B3A0",
"6 	c #645364",
"7 	c #F4C0A8",
"8 	c #FBD1B5",
"9 	c #FBC9AD",
"0 	c #EDA99A",
"a 	c #E38A8A",
"b 	c #C1727B",
"c 	c #976771",
"d 	c #A56C74",
"e 	c #A66D75",
"f 	c #7E5E6B",
"g 	c #A66D74",
"h 	c #A66C74",
"i 	c #D09C90",
"j 	c #FBC9AE",
"k 	c #EAA095",
"l 	c #D78385",
"m 	c #805F6B",
"n 	c #705A68",
"o 	c #966675",
"p 	c #AE717C",
"q 	c #AF717C",
"r 	c #AE707B",
"s 	c #906472",
"t 	c #6D5967",
"u 	c #617282",
"v 	c #6D5866",
"w 	c #9F6A78",
"x 	c #997376",
"y 	c #F7C1A8",
"z 	c #F3B8A3",
"A 	c #DE8A89",
"B 	c #6E5967",
"C 	c #745B69",
"D 	c #7B5D6B",
"E 	c #7D5E6B",
"F 	c #617182",
"G 	c #6E5866",
"H 	c #705967",
"I 	c #9E7F7C",
"J 	c #EFAB9C",
"K 	c #946770",
"L 	c #7B5D6C",
"M 	c #A56C79",
"N 	c #B0747C",
"O 	c #BE8B89",
"P 	c #C08F8D",
"Q 	c #B88082",
"R 	c #986774",
"S 	c #6F7D8B",
"T 	c #A56E78",
"U 	c #B58584",
"V 	c #B98D8A",
"W 	c #B98D8B",
"X 	c #B38181",
"Y 	c #A16B77",
"Z 	c #7F626C",
"` 	c #B08983",
" .	c #B18D85",
"..	c #A87478",
"+.	c #755B68",
"@.	c #7B5D6A",
"#.	c #8A636F",
"$.	c #8C6772",
"%.	c #947378",
"&.	c #947278",
"*.	c #7F5E6C",
"=.	c #677686",
"-.	c #89646F",
";.	c #957478",
">.	c #8B636F",
",.	c #9B7778",
"'.	c #FBC5AB",
").	c #EDA196",
"!.	c #80606C",
"~.	c #6B6978",
"{.	c #6B6776",
"].	c #A8777D",
"^.	c #C49591",
"/.	c #C08E8D",
"(.	c #83646F",
"_.	c #6B7A88",
":.	c #A2737A",
"<.	c #C39490",
"[.	c #9E8E89",
"}.	c #FCD7BB",
"|.	c #F0AC9C",
"1.	c #80626E",
"2.	c #788B97",
"3.	c #748592",
"4.	c #947077",
"5.	c #C49590",
"6.	c #886B73",
"7.	c #6F7E8C",
"8.	c #AC8383",
"9.	c #9F837F",
"0.	c #FCCEB1",
"a.	c #84606C",
"b.	c #AC7A7F",
"c.	c #B78B89",
"d.	c #BF8F8D",
"e.	c #C1938F",
"f.	c #BC8A8A",
"g.	c #81616D",
"h.	c #7E9099",
"i.	c #9C6B75",
"j.	c #C0918E",
"k.	c #9E8682",
"l.	c #FCD0B4",
"m.	c #6B5866",
"n.	c #6A5766",
"o.	c #6B5766",
"p.	c #6E5A67",
"q.	c #81939C",
"r.	c #8A606E",
"s.	c #A78081",
"t.	c #A88182",
"u.	c #9F737A",
"v.	c #83606C",
"w.	c #9F807C",
"x.	c #FDCBAF",
"y.	c #A96E7A",
"z.	c #768692",
"A.	c #C59591",
"B.	c #87646E",
"C.	c #936E73",
"D.	c #E8B4A0",
"E.	c #EAB9A3",
"F.	c #DB918B",
"G.	c #986775",
"H.	c #A56D78",
"I.	c #9E6976",
"J.	c #765C6A",
"K.	c #717F8D",
"L.	c #956672",
"M.	c #B88B8A",
"N.	c #B88C8A",
"O.	c #AE7C81",
"P.	c #82606C",
"Q.	c #B38385",
"R.	c #7E5E6C",
"S.	c #637484",
"T.	c #9E8985",
"U.	c #FCD3B7",
"V.	c #C39390",
"W.	c #AC7B80",
"X.	c #785F6A",
"Y.	c #696272",
"Z.	c #896A71",
"`.	c #B78285",
" +	c #C39590",
".+	c #9E8984",
"++	c #A0737A",
"@+	c #AA8283",
"#+	c #A98282",
"$+	c #A17478",
"%+	c #72737F",
"&+	c #859FA7",
"*+	c #726D79",
"=+	c #859FA8",
"-+	c #77616D",
";+	c #A67B7D",
">+	c #9E8C87",
",+	c #FCD5B9",
"'+	c #715A68",
")+	c #7A5D6A",
"!+	c #755B69",
"~+	c #6F6C79",
"{+	c #829BA4",
"]+	c #6F6774",
"^+	c #8099A3",
"/+	c #7B626E",
"(+	c #BA8788",
"_+	c #B88386",
":+	c #85616D",
"<+	c #89626F",
"[+	c #AD707B",
"}+	c #A76D79",
"|+	c #6E6B79",
"1+	c #7F6871",
"2+	c #C49490",
"3+	c #725A69",
"4+	c #86606E",
"5+	c #88616E",
"6+	c #89616E",
"7+	c #7D5D6C",
"8+	c #735F6C",
"9+	c #906C74",
"0+	c #957479",
"a+	c #967479",
"b+	c #8F6A73",
"c+	c #7B5E6B",
"d+	c #BD898A",
"e+	c #B68184",
"f+	c #715E6C",
"g+	c #84606E",
"h+	c #8A626F",
"i+	c #88616F",
"j+	c #9E827E",
"k+	c #FCCDB1",
"l+	c #C2928F",
"m+	c #BE8E8C",
"n+	c #6D6B79",
"o+	c #79616E",
"p+	c #AC6F7B",
"q+	c #815F6B",
"r+	c #80626D",
"s+	c #846870",
"t+	c #7E606C",
"u+	c #6F6B79",
"v+	c #819BA4",
"w+	c #715E6B",
"x+	c #7C5E6B",
"y+	c #7D5F6C",
"z+	c #755C6A",
"A+	c #906A73",
"B+	c #987479",
"C+	c #BB8788",
"D+	c #BF8D8B",
"E+	c #896573",
"F+	c #737581",
"G+	c #656C7C",
"H+	c #71737F",
"I+	c #9E6E78",
"J+	c #C3928E",
"K+	c #977479",
"L+	c #83616C",
"M+	c #9F7F7C",
"N+	c #80636F",
"O+	c #748E9A",
"P+	c #6F8795",
"Q+	c #8C6D74",
"R+	c #C2918E",
"S+	c #866770",
"T+	c #A87A7C",
"U+	c #9E7D7B",
"V+	c #FCCAAE",
"W+	c #EFA99B",
"X+	c #6E5A69",
"Y+	c #6F5B69",
"Z+	c #AA777D",
"`+	c #707E8C",
" @	c #A47D7F",
".@	c #AA767D",
"+@	c #6D5A68",
"@@	c #785E6A",
"#@	c #967677",
"$@	c #977878",
"%@	c #916971",
"&@	c #A56C78",
"*@	c #A46C78",
"=@	c #835F6F",
"-@	c #647484",
";@	c #AF7C81",
">@	c #775C69",
",@	c #9D7A7A",
"'@	c #FCC8AD",
")@	c #EEA699",
"!@	c #8F6472",
"~@	c #667686",
"{@	c #AC8484",
"]@	c #88656E",
"^@	c #9E8F8A",
"/@	c #FCD8BC",
"(@	c #6B7A89",
"_@	c #8C616E",
":@	c #A98182",
"<@	c #9E7E7C",
"[@	c #745B68",
"}@	c #946871",
"|@	c #E4938E",
"1@	c #E3948E",
"2@	c #DB8185",
"3@	c #825F6B",
"4@	c #627181",
"5@	c #986776",
"6@	c #AC707B",
"7@	c #AC6F7A",
"8@	c #A86E7A",
"9@	c #805E6D",
"0@	c #7D5C6A",
"a@	c #6A5866",
"b@	c #6C5866",
"c@	c #6C5766",
"d@	c #6C5967",
"            . + + @ # $ % & * = - ; > % , ' ) + + .             ",
"      ! ~ { ] ^ ^ ] ] / / / ( _ : ] ] / / / ] ^ ^ ] { ~ !       ",
"    < [ } | 1 2 2 1 1 1 1 1 3 4 5 : 1 1 1 1 1 2 2 1 | } [ <     ",
"  6 7 8 9 0 a b c d d d d d e f g h d d d d d c b a 0 9 8 7 6   ",
"  i j / k l m n o p q q q r s t u v w q q q p o n m l k / j i   ",
"x y ] z A B C D E E E E E E C B F G n n n n n H B B B A z ] y x ",
"I ( ] J K L M N O P P P P Q R t S v T U V V V W X Y L K J ] ( I ",
"Z `  ...+.@.#.$.%.%.%.%.%.&.*.t =.v -.%.%.%.%.%.;.>.@.+... .` Z ",
",.'.9 ).!.~.{.].^.^.^.^.^.^./.(._.:.<.^.^.^.^.^.].{.~.!.).9 '.,.",
"[.}.] |.1.2.3.4.5.<.<.<.<.<.^.6.7.8.<.<.<.<.<.5.4.3.2.1.|.] }.[.",
"9.0.] |.a.b.c.d.e.e.e.e.e.e.f.g.h.i.j.e.e.e.e.e.d.c.b.a.|.] 0.9.",
"k.l.] |.m m.n.n.n.n.n.n.n.n.o.p.q.r.s.t.t.t.t.t.t.t.u.v.|.] l.k.",
"w.x.] |.a.M r r r r r r r r y.L z.8.<.<.<.<.<.<.<.<.A.B.|.] x.w.",
"C.D.E.F.m G.H.H.H.H.H.H.H.H.I.J.K.L.M.N.N.N.N.N.N.V O.P.F.E.D.C.",
"C.D.E.F.P.O.V V V V V V V V Q.R.S.L.M.N.N.N.N.N.N.V O.P.F.E.D.C.",
"T.U.] |.B.A.<.<.<.<.<.<.<.V.W.X.Y.Z.`. +<.<.<.<.<.<.A.B.|.] U.T.",
".+U.] |.v.++@+#+#+#+#+#+@+$+%+&+*+=+-+;+t.t.t.t.t.t.u.v.|.] U..+",
">+,+] |.m '+)+D D D D D D !+~+{+]+^+/+(+e.e.e.e.e.e._+:+|.] ,+>+",
"w.( ] |.m <+[+[+[+[+[+[+[+}+|+{+]+^+1+2+<.<.<.<.<.<.2+B.|.] ( w.",
",.'.9 ).m 3+4+5+5+5+5+5+6+7+~+{+]+^+8+9+0+0+0+0+0+a+b+P.).9 '.,.",
"Z `  ...c+d+^.^.^.^.^.^.^.e+|+{+]+^+f+g+h+h+h+h+h+i+C +... .` Z ",
"j+k+] J B.l+<.<.<.<.<.<.<.m+n+{+]+^+o+p+[+[+[+[+[+[+<+m J ] k+j+",
"[.}.] |.q+r+s+s+s+s+s+s+s+t+u+v+]+^+w+x+t+t+t+t+t+y+z+m |.] }.[.",
"T.U.] |.P.A+B+C+^.^.^.^.^.D+E+F+G+H+I+J+^.^.^.^.C+B+K+L+|.] U.T.",
"M+( ] |.N+O+P+Q+5.<.<.<.<.<.R+S+=.T+<.<.<.<.<.5.Q+P+O+N+|.] ( M+",
"U+V+] W+m X+Y+Z+W V V V V V Q.R.`+ @N.N.N.N.N.W .@Y++@m W+] V+U+",
"@@#@$@%@C G.H.H.&@H.H.H.H.*@=@B -@L.M.N.N.N.N.N.V W ;@>@%@$@#@@@",
",@'@V+)@a.M r r r r r r r [+!@t ~@{@<.<.<.<.<.<.<.<.A.]@)@V+'@,@",
"^@/@] |.m m.n.n.n.n.n.n.n.n.m.B (@_@:@#+#+#+#+#+#+@+++v.|.] /@^@",
"<@V+] W+:+_+e.e.e.e.e.e.e.e.f.g.u G @.D D D D D D D [@m W+] V+<@",
"}@|@1@2@3@_+e.e.e.e.e.e.e.e.f.g.4@G 5@6@7@7@7@7@7@8@9@0@2@1@|@}@",
"t a@a@m.B b@c@b@b@b@b@b@b@b@b@B G B t d@d@d@d@d@d@t B B m.a@a@t "};
