/* XPM */
static char * key_on_tile_xpm[] = {
"32 32 13 1",
" 	c #337803",
".	c #317105",
"+	c #357B05",
"@	c #306D05",
"#	c #337504",
"$	c #196F30",
"%	c #1A7231",
"&	c #1B7735",
"*	c #FEE861",
"=	c #1D7C37",
"-	c #D77643",
";	c #1E7F38",
">	c #FDAE35",
"   .++++@###..     .++++$###..  ",
"  #  ++@@##   #   #  ++$$$#%  # ",
" #    ..##%%   # $    $$$%%%   #",
"#####..####%%   $$$$    %%%%%   ",
"######++++%%%%%$$$%    %%%%%%%%#",
"##### +++%%%&&&&&$%%%%$$%%%%%%##",
"++++#   %%$$&&&&$$%&####%%%%&&%%",
".+++       &&&    &####%%%$%&&%.",
"..+   $   &&&&%    #***   $%&&&%",
"  .  $$  $$==%%%  **---**%%==&& ",
"   $ $% %%==%%&&% -------%%=%%%%",
"#   $%%&===%%&&&&*--%%$--*=%%&&%",
"%%$$$%%&&&==&&&&&--%%%&&--==&&&&",
"#%%%%%###==%%&&%%--;;;$&--=%%%&#",
"%%%%%#>>>>>>>>>>>--;;$$&--&&%%%%",
"$%...#***********--;%%&&--&&&%%%",
"%%%..#>>>>>>>>>>>--%;;;;--&&&&&&",
" %%%.%-------------==;;$--&==&&&",
"@@%%%%%---&%===&=--===%%--&%==&&",
"@%    %--&&&%===&--*&%%*--&&%=%%",
"#    %%--&&&&&&&&&--***--;%&&&&%",
"#   @%%%%$%%&&&&&&-------$$&&&$$",
"   .++++%%&%&&&&;;-----=%%&&&$%+",
"  .  ++%%&$%&&&%%;;;=======%&&%%",
" $    %%&$$%&&&&%%;===&===%%&&&%",
"$$$$   %$%%==&&===%==&&==%===&==",
"@$%   %%%%==%%&%===&=&&=&===%%&=",
"$$%%%%%&%==%%&&&&===&&&&===%%&&&",
"$%%%%%%&&&==&&&&&&&&&&&&&&==&&&&",
".#++++$&&==%&&&&&&&%&&&&&%%%%&&%",
".++++$$%&&&&&&%$$%%%%%%&%%&&==%%",
" +++%%&%%&&&&    &&&%&%%%%%%%   "};
