/* XPM */
static char * tile_xpm[] = {
"32 32 10 1",
" 	c #337803",
".	c #317105",
"+	c #357B05",
"@	c #306D05",
"#	c #337504",
"$	c #196F30",
"%	c #1A7231",
"&	c #1B7735",
"*	c #1D7C37",
"=	c #1E7F38",
"   .++++@###..     .++++$###..  ",
"  #  ++@@##   #   #  ++$$$#%  # ",
" #    ..##%%   # $    $$$%%%   #",
"#####..####%%   $$$$    %%%%%   ",
"######++++%%%%%$$$%    %%%%%%%%#",
"##### +++%%%&&&&&$%%%%$$%%%%%%##",
"++++#   %%$$&&&&$$%&####%%%%&&%%",
".+++       &&&    &####%%%$%&&%.",
"..+   $   &&&&%    ###@   $%&&&%",
"  .  $$  $$**%%%   ##@   %%**&& ",
"   $ $% %%**%%&&%  #%   %%%*%%%%",
"#   $%%&***%%&&&&& %%%$$$%*%%&&%",
"%%$$$%%&&&**&&&&&&&%%%&&&&**&&&&",
"#%%%%%###**%%&&%%&====$&&**%%%&#",
"%%%%%###%%&&****%====$$&&&&&%%%%",
"$%...##%##&&%****===%%&&&&&&&%%%",
"%%%..#%##%&&%%*****%====$&&&&&&&",
" %%%.%%#%%&***&***&**==$$&&**&&&",
"@@%%%%%%%&&%***&*&****%%&&&%**&&",
"@%    %&&&&&%***&&&&&%%&&&&&%*%%",
"#    %%%$&&&&&&&&&&&&&====%&&&&%",
"#   @%%%%$%%&&&&&&&&&*===$$&&&$$",
"   .++++%%&%&&&&====&***%%&&&$%+",
"  .  ++%%&$%&&&%%===*******%&&%%",
" $    %%&$$%&&&&%%=***&***%%&&&%",
"$$$$   %$%%**&&***%**&&**%***&**",
"@$%   %%%%**%%&%***&*&&*&***%%&*",
"$$%%%%%&%**%%&&&&***&&&&***%%&&&",
"$%%%%%%&&&**&&&&&&&&&&&&&&**&&&&",
".#++++$&&**%&&&&&&&%&&&&&%%%%&&%",
".++++$$%&&&&&&%$$%%%%%%&%%&&**%%",
" +++%%&%%&&&&    &&&%&%%%%%%%   "};
