/* XPM */
static char * tree_on_tile_xpm[] = {
"32 32 500 2",
"  	c #337803",
". 	c #317105",
"+ 	c #357B05",
"@ 	c #397E06",
"# 	c #377C05",
"$ 	c #51930C",
"% 	c #64A312",
"& 	c #3F7F07",
"* 	c #52910C",
"= 	c #428107",
"- 	c #63A412",
"; 	c #63A312",
"> 	c #57980D",
", 	c #4B8C0A",
"' 	c #5B9C0F",
") 	c #61A311",
"! 	c #327306",
"~ 	c #196F30",
"{ 	c #337504",
"] 	c #5C9D10",
"^ 	c #6CAF14",
"/ 	c #6EB116",
"( 	c #70B316",
"_ 	c #72B516",
": 	c #71B516",
"< 	c #69AE15",
"[ 	c #519E14",
"} 	c #448D0D",
"| 	c #48910F",
"1 	c #4A9410",
"2 	c #348027",
"3 	c #1A7231",
"4 	c #377D05",
"5 	c #4B9410",
"6 	c #59A014",
"7 	c #4B9114",
"8 	c #6BAE15",
"9 	c #6AAF15",
"0 	c #64AA15",
"a 	c #6AAE15",
"b 	c #549D14",
"c 	c #529E14",
"d 	c #4D9915",
"e 	c #317C1A",
"f 	c #166C28",
"g 	c #1F722C",
"h 	c #317509",
"i 	c #559D14",
"j 	c #539F14",
"k 	c #68AD15",
"l 	c #6BB016",
"m 	c #5DA515",
"n 	c #71B416",
"o 	c #6CAF17",
"p 	c #67A917",
"q 	c #397D17",
"r 	c #3D8215",
"s 	c #2F7617",
"t 	c #387B15",
"u 	c #2F7517",
"v 	c #397D1A",
"w 	c #1C7330",
"x 	c #2E720B",
"y 	c #1E6C18",
"z 	c #61A218",
"A 	c #6FB216",
"B 	c #6FB316",
"C 	c #65AB15",
"D 	c #6DB116",
"E 	c #3B8519",
"F 	c #499018",
"G 	c #358019",
"H 	c #3B8518",
"I 	c #448913",
"J 	c #428613",
"K 	c #499114",
"L 	c #418514",
"M 	c #2C6C18",
"N 	c #155D21",
"O 	c #186C2D",
"P 	c #2A6E0F",
"Q 	c #327714",
"R 	c #3F8014",
"S 	c #4C9014",
"T 	c #59A314",
"U 	c #6DAF16",
"V 	c #6EB016",
"W 	c #6CAE16",
"X 	c #6BAE16",
"Y 	c #60A415",
"Z 	c #509C14",
"` 	c #519D14",
" .	c #459017",
"..	c #2E791A",
"+.	c #1F6E1B",
"@.	c #11551B",
"#.	c #12531B",
"$.	c #166328",
"%.	c #246A15",
"&.	c #10661C",
"*.	c #1F6C1A",
"=.	c #3B7E14",
"-.	c #458B13",
";.	c #4F9614",
">.	c #428513",
",.	c #4E9514",
"'.	c #589F14",
").	c #599D14",
"!.	c #418413",
"~.	c #438413",
"{.	c #3F8013",
"].	c #4C9514",
"^.	c #4E9A15",
"/.	c #469017",
"(.	c #28751A",
"_.	c #357F19",
":.	c #0E661C",
"<.	c #11631C",
"[.	c #12581B",
"}.	c #124F1B",
"|.	c #14501F",
"1.	c #1B7634",
"2.	c #1B7735",
"3.	c #2F730D",
"4.	c #226E16",
"5.	c #14681B",
"6.	c #2C781A",
"7.	c #4F9B14",
"8.	c #4E9814",
"9.	c #529D14",
"0.	c #488F13",
"a.	c #4C9614",
"b.	c #438813",
"c.	c #367616",
"d.	c #3C7E13",
"e.	c #457B19",
"f.	c #347719",
"g.	c #4D9714",
"h.	c #387E16",
"i.	c #397C15",
"j.	c #16691B",
"k.	c #10641C",
"l.	c #12571C",
"m.	c #12561C",
"n.	c #12501B",
"o.	c #13461A",
"p.	c #144D1E",
"q.	c #1A6F31",
"r.	c #1F6918",
"s.	c #1F641C",
"t.	c #2B711B",
"u.	c #5C9E18",
"v.	c #5BA017",
"w.	c #5EA615",
"x.	c #5AA314",
"y.	c #67AC15",
"z.	c #66AB15",
"A.	c #145F1C",
"B.	c #12631C",
"C.	c #3E421F",
"D.	c #376719",
"E.	c #367716",
"F.	c #3D7F13",
"G.	c #3E8013",
"H.	c #426D19",
"I.	c #1F541B",
"J.	c #13471A",
"K.	c #134B1B",
"L.	c #13491A",
"M.	c #165C26",
"N.	c #18692D",
"O.	c #428413",
"P.	c #498D14",
"Q.	c #488915",
"R.	c #4D9019",
"S.	c #4D9317",
"T.	c #2A651B",
"U.	c #4B701C",
"V.	c #387915",
"W.	c #418714",
"X.	c #317617",
"Y.	c #35611B",
"Z.	c #463920",
"`.	c #32421D",
" +	c #13511B",
".+	c #155322",
"++	c #196A2E",
"@+	c #337704",
"#+	c #367A15",
"$+	c #4B8B14",
"%+	c #64A715",
"&+	c #5FA715",
"*+	c #60A715",
"=+	c #6AAC15",
"-+	c #70B416",
";+	c #4F9A14",
">+	c #4C9414",
",+	c #519C14",
"'+	c #327318",
")+	c #11571C",
"!+	c #18571C",
"~+	c #4A3621",
"{+	c #1A5B1C",
"]+	c #12521B",
"^+	c #12561B",
"/+	c #12541B",
"(+	c #144A1C",
"_+	c #196C2E",
":+	c #37790F",
"<+	c #246F1A",
"[+	c #589C18",
"}+	c #72B616",
"|+	c #6EB216",
"1+	c #599B19",
"2+	c #2B761B",
"3+	c #327317",
"4+	c #246A1A",
"5+	c #2D7418",
"6+	c #0F661C",
"7+	c #10671C",
"8+	c #1C641D",
"9+	c #12661C",
"0+	c #1D591D",
"a+	c #134F1B",
"b+	c #145020",
"c+	c #196A2D",
"d+	c #19712F",
"e+	c #11681F",
"f+	c #236F1F",
"g+	c #397D19",
"h+	c #68AB15",
"i+	c #5C9D18",
"j+	c #69AB16",
"k+	c #68A915",
"l+	c #5BA415",
"m+	c #569714",
"n+	c #307617",
"o+	c #236E1A",
"p+	c #256F19",
"q+	c #337816",
"r+	c #246D1A",
"s+	c #2E6E18",
"t+	c #185C1B",
"u+	c #115B1C",
"v+	c #115E1C",
"w+	c #11611C",
"x+	c #1E561C",
"y+	c #164C1B",
"z+	c #403D1F",
"A+	c #16451A",
"B+	c #17622A",
"C+	c #327505",
"D+	c #206E2A",
"E+	c #3B7D16",
"F+	c #3E7A15",
"G+	c #327517",
"H+	c #17691B",
"I+	c #327716",
"J+	c #418313",
"K+	c #519814",
"L+	c #408A18",
"M+	c #25731B",
"N+	c #3D8617",
"O+	c #357A16",
"P+	c #3B7D14",
"Q+	c #3A7D14",
"R+	c #18681B",
"S+	c #11601C",
"T+	c #12541C",
"U+	c #194F1C",
"V+	c #453720",
"W+	c #3E3B1F",
"X+	c #29421C",
"Y+	c #155220",
"Z+	c #18652B",
"`+	c #186D2D",
" @	c #145D21",
".@	c #17591B",
"+@	c #2D511D",
"@@	c #463C20",
"#@	c #295C1B",
"$@	c #3B7E16",
"%@	c #408413",
"&@	c #3D8315",
"*@	c #307919",
"=@	c #428713",
"-@	c #317717",
";@	c #216E1A",
">@	c #296E18",
",@	c #2F6B17",
"'@	c #12461A",
")@	c #1A491B",
"!@	c #31431D",
"~@	c #134A1B",
"{@	c #175E27",
"]@	c #186E2D",
"^@	c #12631E",
"/@	c #115C1C",
"(@	c #2B6D1A",
"_@	c #4E8319",
":@	c #4F811A",
"<@	c #4E9914",
"[@	c #4E9714",
"}@	c #4A9114",
"|@	c #448A14",
"1@	c #3E8113",
"2@	c #337316",
"3@	c #11521C",
"4@	c #165C25",
"5@	c #1A7130",
"6@	c #18702E",
"7@	c #11671E",
"8@	c #10631C",
"9@	c #3F8918",
"0@	c #448F17",
"a@	c #509B14",
"b@	c #418513",
"c@	c #357916",
"d@	c #3C7E14",
"e@	c #448D16",
"f@	c #4B9414",
"g@	c #438D17",
"h@	c #1D5E1B",
"i@	c #124E1B",
"j@	c #17501C",
"k@	c #13481B",
"l@	c #155321",
"m@	c #186D2C",
"n@	c #156927",
"o@	c #13671B",
"p@	c #115D1C",
"q@	c #10611C",
"r@	c #307B1A",
"s@	c #509B15",
"t@	c #448E17",
"u@	c #479216",
"v@	c #529B15",
"w@	c #4F8719",
"x@	c #4F9A15",
"y@	c #418717",
"z@	c #30731A",
"A@	c #11661C",
"B@	c #11671C",
"C@	c #13671C",
"D@	c #37531F",
"E@	c #1C461B",
"F@	c #10461A",
"G@	c #473620",
"H@	c #2E411C",
"I@	c #19672C",
"J@	c #18632A",
"K@	c #306D05",
"L@	c #125C21",
"M@	c #3A441F",
"N@	c #2B531E",
"O@	c #125E1C",
"P@	c #105E1C",
"Q@	c #2A721A",
"R@	c #3F501E",
"S@	c #26461C",
"T@	c #37471F",
"U@	c #3B3D1E",
"V@	c #115C1B",
"W@	c #11511A",
"X@	c #27481C",
"Y@	c #403A1F",
"Z@	c #493521",
"`@	c #32401D",
" #	c #155522",
".#	c #317505",
"+#	c #2F7009",
"@#	c #305426",
"##	c #433820",
"$#	c #414120",
"%#	c #164E1B",
"&#	c #10541C",
"*#	c #3C441F",
"=#	c #4B3421",
"-#	c #383E1E",
";#	c #1B521C",
">#	c #2C501F",
",#	c #484C25",
"'#	c #584629",
")#	c #5A4529",
"!#	c #4C3622",
"~#	c #3F3A1F",
"{#	c #363F1E",
"]#	c #124B1D",
"^#	c #13471B",
"/#	c #135120",
"(#	c #38401E",
"_#	c #594529",
":#	c #5C452A",
"<#	c #554729",
"[#	c #4C4826",
"}#	c #374821",
"|#	c #2F421D",
"1#	c #383D1E",
"2#	c #5F462C",
"3#	c #64462D",
"4#	c #61462C",
"5#	c #414221",
"6#	c #27451D",
"7#	c #235021",
"8#	c #1C7633",
"9#	c #1C7432",
"0#	c #176229",
"a#	c #19692E",
"b#	c #18672C",
"c#	c #18682C",
"d#	c #124D1E",
"e#	c #2B471D",
"f#	c #624C2E",
"g#	c #7D583A",
"h#	c #845D3D",
"i#	c #775336",
"j#	c #563C26",
"k#	c #503723",
"l#	c #5B3F29",
"m#	c #553B26",
"n#	c #573D27",
"o#	c #2F5225",
"p#	c #196E30",
"q#	c #19682C",
"r#	c #1E7D37",
"s#	c #1D7A35",
"t#	c #1E7F38",
"u#	c #337807",
"v#	c #1A7131",
"w#	c #18642A",
"x#	c #1E6E31",
"y#	c #276A2F",
"z#	c #5C4A2C",
"A#	c #725034",
"B#	c #7C5739",
"C#	c #62452C",
"D#	c #553C26",
"E#	c #454F28",
"F#	c #1D7C37",
"G#	c #3E5429",
"H#	c #8A6240",
"I#	c #946945",
"J#	c #875F3F",
"K#	c #88603F",
"L#	c #4A3321",
"M#	c #2B7534",
"N#	c #4A582D",
"O#	c #A8774E",
"P#	c #AA784F",
"Q#	c #A3734C",
"R#	c #825B3C",
"S#	c #513824",
"T#	c #327636",
"U#	c #207C37",
"V#	c #616236",
"W#	c #A9774F",
"X#	c #7A5638",
"Y#	c #503823",
"Z#	c #33672F",
"`#	c #4B7639",
" $	c #7B673D",
".$	c #9E6F49",
"+$	c #735134",
"@$	c #4B3521",
"#$	c #3F5329",
"$$	c #287434",
"%$	c #506835",
"&$	c #735B38",
"*$	c #7D5839",
"=$	c #9B6D48",
"-$	c #A5744D",
";$	c #976A46",
">$	c #6B4B30",
",$	c #464425",
"'$	c #4F7539",
")$	c #957145",
"!$	c #BE8453",
"~$	c #C78A57",
"{$	c #AD7A4F",
"]$	c #8D6341",
"^$	c #A0714A",
"/$	c #996C47",
"($	c #6E4D31",
"_$	c #365E2C",
":$	c #1C7635",
"<$	c #898146",
"[$	c #CD8E59",
"}$	c #CE8E59",
"|$	c #B47D4E",
"1$	c #735D38",
"2$	c #705D37",
"3$	c #74723E",
"4$	c #527A3B",
"5$	c #807C44",
"6$	c #406A33",
"7$	c #1D7131",
"8$	c #1F6F30",
"9$	c #536A35",
"0$	c #66703B",
"a$	c #487336",
"      . + @ # $ % & * = - ; > , ' > ) ! + + + + ~ { { { . .     ",
"    {     ] ^ / ( _ _ _ _ _ _ _ _ : < [ } | 1 2 ~ ~ { 3     {   ",
"  {     4 5 6 7 8 _ _ _ _ _ _ _ _ 9 0 a b c d e f g 3 3       { ",
"{ { { h i j k l m n _ _ _ _ _ _ _ o _ p q r s t u v w 3 3       ",
"{ { x y z A B _ _ _ _ _ _ _ _ C D E F G H I J K L M N O 3 3 3 { ",
"{ { P Q R S T n U ( V _ W _ X Y Z c c c c `  ...+.@.#.$.3 3 { { ",
"+ + %.&.*.=.-.;.>.,.'.).!.~.{.].c c c ^./.(._.:.<.[.}.|.1.2.3 3 ",
". 3.4.5.6.7.8.9.0.a.c ` b.c.d.e.f.c g.` h.i.j.k.l.m.n.o.p.q.3 . ",
"r.s.t.u.v.w.x.y.0 z.c a.` A.B.C.D.E.F.G.F.H.I.J.K.L.o.o.M.N.2.3 ",
"O./ p _ n _ _ _ _ z.P.O.Q.R.S.T.U.V.-.W.X.Y.Z.`. +K.o.o.o..+++@+",
"#+$+%+&+*+< _ _ _ D _ =+_ -+x.c Z ;+>+,+'+)+!+~+{+]+^+/+}.o.(+_+",
":+<+[+}+B _ _ _ _ k C |+_ 1+2+J =.J 3+4+5+6+7+8+9+7+7+0+a+o.b+c+",
"d+e+f+g+h+p i+j+k+n l+k y.m+n+o+p+q+r+s+t+u+v+v+w+x+y+z+A+o.B+2.",
"C+d+D+E+F+G+H+I+J+K+L+M+N+O+F.P+F.F.F.Q+R+S+l.T+U+V+W+X+o.Y+Z+{ ",
"3 `+ @.@+@@@#@$@%@d.#+&@*@=@F.F.F.t -@;@5+>@,@'@)@!@~@o.o.o.{@3 ",
"]@^@/@/@(@_@:@c <@,+[@` ` }@F.G.F.F.F.|@1@G.2@3@m.m.n.o.o.4@5@3 ",
"6@7@8@7+7+9@H 0@c c c c c c [@a@b@c@d@e@f@g@h@i@j@i@K.o.k@l@2.2.",
"  `+m@n@o@p@q@r@s@t@u@c v@w@x@y@z@7+A@B@C@D@E@F@G@H@o.o.I@J@2.2.",
"K@K@3 3 L@M@N@O@P@7+6+Q@R@G@S@T@U@]+]+V@W@X@Y@X+Z@`@o.o.o. #2.2.",
"K@3     .#+#@###$#%#m.#.&#*#=#-#'@;#>#,#'#)#!#~#{#]#o.o.^#{@3 3 ",
"{         M./#(#_#:#<#[#}#|#=#G@1#2#3#4#5#6#7#'@8#9#0#a#b#2.2.3 ",
"{       K@3 c#k@d#e#f#g#h#i#j#k#l#m#n#o#p#q#r#s#t#~ ~ 2.2.2.~ ~ ",
"      . + + + u#v#w#x#y#z#A#B#C#C#D#E#t#2.F#F#F#3 3 2.2.2.~ 3 + ",
"    .     + + 3 3 2.~ 3 G#H#I#J#K#L#M#t#F#F#F#F#F#F#F#3 2.2.3 3 ",
"  ~         3 3 2.~ ~ 3 N#O#P#Q#R#S#T#F#F#F#2.F#F#F#3 3 2.2.2.3 ",
"~ ~ ~ ~       3 ~ 3 3 U#V#W#P#P#X#Y#Z#F#F#2.2.F#F#3 F#F#F#2.F#F#",
"K@~ 3       3 3 3 3 `# $K#.$W#P#+$=#@$#$$$2.2.F#2.F#F#F#3 3 2.F#",
"~ ~ 3 3 3 3 3 2.3 F#%$&$*$=$-$;$>$L#=#=#,$2.2.2.F#F#F#3 3 2.2.2.",
"~ 3 3 3 3 3 3 2.2.2.'$)$!$~${$]$^$/$($_$:$2.2.2.2.2.F#F#2.2.2.2.",
". { + + + + ~ 2.2.F#<$[$}$|$1$2$^$P#P#3$2.2.2.2.2.3 3 3 3 2.2.3 ",
". + + + + ~ ~ 3 2.2.2.4$5$6$7$8$9$0$a$3 3 3 3 2.3 3 2.2.F#F#3 3 ",
"  + + + 3 3 2.3 3 2.2.2.2.        2.2.2.3 2.3 3 3 3 3 3 3       "};
